<svg id="Layer_1" data-name="Layer 1" xmlns="http://www.w3.org/2000/svg" viewBox="0 0 492.56 75.34"><defs><style>.cls-1{fill:#ff81d8;}.cls-2{fill:#e6a0ff;}</style></defs><title>Artboard 1</title><path d="M400.24,21.15l2.34,19.07c.38-.65.72-1.24,1.05-1.83,2.54-4.57,5.6-6.16,10.85-5.61,4.58.47,7,3.42,8.07,7.52a33.34,33.34,0,0,1,1.13,8.3c0,7.27-.34,14.53-.65,21.8,0,1.22.33,3.34-1.78,3.08-1.71-.21-1.44-1.93-1.39-3.42.24-8.14.47-16.28.43-24.41,0-3.16-.75-6.23-3.64-8.35a7.18,7.18,0,0,0-9.74,1.57c-2.78,4-3.51,8.56-3.85,13.21-.44,6.11-.64,12.25-1,18.37a4.68,4.68,0,0,1-.37,2c-.28.5-1,1.13-1.44,1.07a2.13,2.13,0,0,1-1.3-1.32,5.64,5.64,0,0,1,0-2.08c1-14.71,1.22-29.39-1.23-44-.94-5.65-1.5-6.28-7.36-6.3a75.26,75.26,0,0,0-20.53,2.36c-9.1,2.53-18.17,5.23-27.38,7.31-6.37,1.43-13,1.94-20,2.94,0,4.2,0,8.88,0,13.57s0,9.28-.34,13.89,1.27,9.29-1.09,13.57l-1.07.07a12.55,12.55,0,0,1-.64-3c.15-11.89.37-23.77.56-35.66,0-.95,0-1.89,0-2.84-3.29-.44-6.44-.43-9.29-1.34a31.11,31.11,0,0,1-9.05-4.48,9.77,9.77,0,0,1-2.95-11.42c2.17-4.59,9.63-7.75,14.38-1.89,2.77,3.43,3,6.55.87,9.28a4.85,4.85,0,0,1-5.71,1.49c-1.19-.43-2.09-2.12-2.74-3.42-.32-.63.23-1.68,1-2.59a5.87,5.87,0,0,0,1,1.63c.91.73,2.35,2,2.86,1.76A4.58,4.58,0,0,0,312.49,18c.27-2.58-2.59-5.14-5.69-5.54-2.17-.28-5.09,2-5.75,4.57a7.28,7.28,0,0,0,3.12,8c4.58,3.16,9.88,3.68,15.5,4.23a50.88,50.88,0,0,0-4.86-23.44,21.17,21.17,0,0,1-1-3.2L315,2c1,1.36,2.39,2.57,3,4.09a57.28,57.28,0,0,1,4.2,20.22c0,2.32.77,3,3.07,2.88,10.41-.6,20.44-3.11,30.35-6.08,13-3.89,26.12-6.78,40.61-5.47-1.35-3.28-2.6-6.08-3.65-9-.49-1.35-1-4-.79-4.1,2.19-.84,2.82,1.28,3.45,2.6,1.38,2.91,2.32,6,3.62,9,.38.88,1.22,2,2,2.18,12.13,2.75,24.24,5.67,36.47,7.91,19.3,3.54,37.11,0,52.79-12.37.58-.46,1.6-.36,2.42-.52-.25.85-.23,2-.79,2.52-5.94,5.77-13.36,8.79-21.11,11.28-14,4.49-28,3.36-42,.24-8.46-1.89-16.9-3.88-25.35-5.8C402.34,21.43,401.39,21.34,400.24,21.15Z"/><path d="M3.67,46.31c1,4.31,1.55,8.83,3.21,12.88C10.1,67.05,18.46,71.33,25.53,69.4c4.41-1.19,6.65-3.91,7-8.43.05-.61-.14-1.37.16-1.8A15.57,15.57,0,0,1,34.8,57a15.39,15.39,0,0,1,1.29,2.48,10.07,10.07,0,0,1,0,2.05A10.92,10.92,0,0,1,29.41,73,19.33,19.33,0,0,1,5,65.69c-8.25-13-5.89-35.85,4.74-47C15.15,13,22,11.14,29.61,12c4.94.54,8,3.73,9.62,8.27.88,2.48,0,4.14-1.79,3.65a3.55,3.55,0,0,1-1.74-1.67c-3.34-5.66-5.36-6.66-11.83-5.66a18.71,18.71,0,0,0-13.31,8.5A36.48,36.48,0,0,0,4.35,46.17Z"/><path d="M211.84,46.86c.93,4.19,1.3,8.38,2.82,12.12,2.75,6.81,7.82,11.05,15.57,11.36,5.92.23,9.85-3.18,10.37-9.09.05-.61-.08-1.36.22-1.8a14.7,14.7,0,0,1,2.05-2c.43.83.9,1.64,1.29,2.48.09.2-.09.51-.1.77-.49,11.06-7.51,16.39-18.61,14.06a18.31,18.31,0,0,1-13.17-10c-5.6-11.15-5.39-22.64-1.27-34.17,3-8.41,7.93-15.13,17.08-17.44a31.57,31.57,0,0,1,9.1-.77A11.32,11.32,0,0,1,247.36,21c.22,1,0,2.85-.6,3.24-1.49.91-2.4-.36-3.16-1.71-3-5.44-5.22-6.38-11.36-5.54-9.67,1.33-14.49,8-17.46,16.27C213.23,37.58,212.79,42.28,211.84,46.86Z"/><path d="M365,70.58c-.62.8-1.22,2.23-1.87,2.25-1.33.06-3.16-.24-3.92-1.13-1.36-1.6-2.09-3.75-3.2-5.88-.71.9-1.42,1.83-2.16,2.73-3.87,4.74-8.91,6-14.64,4.63S330.62,68,329.15,62.55a25.39,25.39,0,0,1,2-18.6,15.4,15.4,0,0,1,6.79-7.07c4.7-2.43,9.51-4.46,15-4,.26,0,.53,0,.79,0,4.71.35,5.88,1.92,5.64,6.56-.35,6.8-.5,13.62-.55,20.43a24.35,24.35,0,0,0,.91,6.21c.6,2.3,1.81,4.21,4.83,3.8Zm-8.63-34c-6.35-2.11-16.08.57-20.39,5.61s-5.46,11.1-4.39,17.45c.68,4.05,2.66,7.7,6.59,9.6,7.36,3.54,16.81-2.18,17.42-10.72C356.12,51.31,356.13,44.06,356.37,36.59Z"/><path d="M196.36,69.84c-.92,1.4-1.42,2.88-2,2.93-1.33.1-3.22-.08-4-.94-1.43-1.67-2.21-3.88-3.35-6L185.38,68c-3.9,5.12-9.08,6.66-15.16,5.22-5.86-1.4-9.06-5.49-10.07-11.2a33.8,33.8,0,0,1-.62-9.6C161.2,37.65,173.79,32.44,185,33a10.29,10.29,0,0,1,4.4,1.57,3,3,0,0,1,1.08,2.34c-.18,6.73-.59,13.45-.71,20.17a40.25,40.25,0,0,0,.74,8.34C191.05,67.92,192.15,70.29,196.36,69.84Zm-8.93-33.37c-7.26-2.12-13.88.09-19.35,4.79s-6.71,11.54-5.42,18.53c.75,4,2.73,7.67,6.7,9.53,7.44,3.49,16.83-2.53,17.35-11.21C187.13,51.05,187.19,44,187.43,36.47Z"/><path d="M285,70.43c-.57.83-1.09,2.32-1.71,2.37-1.33.09-3.2-.15-3.95-1-1.39-1.59-2.13-3.74-3.24-5.86a13.79,13.79,0,0,0-1.22,1.38c-3.79,5.44-9,7.35-15.37,5.94S250,67.5,249.1,61.47a35,35,0,0,1-.25-10.37c1.23-8.1,5.76-13.67,13.72-16.38,5-1.7,9.89-2.88,15.05-.71,1.66.7,2.09,1.6,2,3.41-.39,7.33-.68,14.68-.75,22A28,28,0,0,0,280,66.67c.55,2.06,1.83,3.62,4.47,3.13ZM251.3,55.26c0,6,1.69,10.94,6.58,13.76,7.32,4.22,17.22-1.87,17.85-10.82.48-6.7.73-13.43.94-20.15a2.45,2.45,0,0,0-1.45-1.84c-7.26-1.47-13.54.88-18.8,5.7C252.46,45.55,251.47,50.59,251.3,55.26Z"/><path d="M76.1,70.46c-.57.82-1.1,2.29-1.72,2.33-1.33.09-3.22-.14-3.95-1-1.41-1.67-2.17-3.88-3.28-6-.47.62-.94,1.21-1.38,1.82-3.81,5.31-9,7-15.24,5.63-6-1.35-9.32-5.46-10.24-11.31A37.85,37.85,0,0,1,39.92,51C41.82,37,55.28,32.29,65.22,33a10.56,10.56,0,0,1,4.4,1.6,3,3,0,0,1,1.06,2.36c-.21,7-.68,14-.76,20.95a38,38,0,0,0,1.17,8.79c.47,2,1.8,3.65,4.46,3.14ZM67.71,36.64c-5.45-2-10.31-.18-15.39,1.78C42.44,42.23,39,59.16,46.32,67c3.06,3.27,8.26,4.65,12.21,2.58,5-2.65,8.27-6.66,8.34-12.67,0-1.83,0-3.67,0-5.5C67.15,46.49,67.43,41.62,67.71,36.64Z"/><path d="M125,38.64c.51-.79.92-1.44,1.35-2.07a8.47,8.47,0,0,1,14.48.27,15.07,15.07,0,0,1,1.74,11.4c-2.23,10.41-8.21,18.44-16.32,25.06-1.51,1.23-3.15,1.65-4.79.34-8.62-6.83-15.32-15-16.93-26.27-1.09-7.71,4.56-15,11.46-15.16C120.44,32.1,123,34.8,125,38.64ZM140.2,44.8a10.48,10.48,0,0,0,.09-1.57c-.35-3.24-1.72-5.89-4.69-7.43a5.1,5.1,0,0,0-6.08,1,15.33,15.33,0,0,0-2.43,3.37c-1.46,2.34-2.72,2.38-4.24,0-.38-.59-.66-1.24-1-1.83-2.32-3.77-6.56-4.56-10.18-1.94-4.5,3.25-5.18,8.06-4,12.72a38.3,38.3,0,0,0,14.07,21.26c1.43,1.1,2.71,1.13,4-.07a66.71,66.71,0,0,0,5.46-5.3C136.13,59.2,139.48,52.57,140.2,44.8Z"/><path d="M448.33,38.63c1.84-3.45,3.94-6,8-5.87,5.83.2,9.82,4.58,9.74,11.09-.11,8.75-4,16-9.45,22.52a68.35,68.35,0,0,1-6.35,6.27c-2.58,2.37-4,2.44-6.66.2-7.72-6.42-13.71-14-15.71-24.15a14.48,14.48,0,0,1,1.68-10.42C433.33,32,442.63,28.28,448.33,38.63Zm15.13,6.09c0-.35.06-.7.07-1,.08-3.73-2.46-7.46-5.64-8.31-2.88-.76-5.31.67-7.46,4.42-1.62,2.82-2.89,2.81-4.55-.06-.26-.46-.48-.94-.75-1.39a6.85,6.85,0,0,0-10.2-2c-4.49,3.13-5.27,7.84-4.19,12.41a38,38,0,0,0,14.39,21.94,2.62,2.62,0,0,0,3.77-.18,66.46,66.46,0,0,0,5.83-5.67C459.56,59,462.9,52.44,463.46,44.72Z"/><path d="M310.94,44.47a18.59,18.59,0,0,1-1.6-2.47c-1.7-3.8-5-5.53-8.7-6.57a5.42,5.42,0,0,0-6.43,2.76c-1.15,2.78-.31,5.33,2.47,6.93,1.89,1.1,4,1.83,5.83,3a31.08,31.08,0,0,1,6.38,5A12.86,12.86,0,0,1,311,67.76c-2.54,4.57-7.49,6.76-13.54,6-7.5-.95-11.35-6.77-9.08-14,1-3.13,3.55-4.73,6.64-5.29,2.88-.53,5.7-.28,7.56,2.37a10.41,10.41,0,0,1,1,3l-.71.29c-.49-.46-1-.9-1.47-1.37-2-2-4.31-2.33-7-1.37a6.22,6.22,0,0,0-4.28,5.74,6.63,6.63,0,0,0,3.24,6.47,10.64,10.64,0,0,0,16.54-7.2,7.7,7.7,0,0,0-2.81-7.55,60.37,60.37,0,0,0-9.41-6.1c-3.26-1.75-5.84-3.85-6.55-7.66a7,7,0,0,1,5.44-8,13.5,13.5,0,0,1,14.66,7.33,14.45,14.45,0,0,1,.64,3.78Z"/><path d="M373.24,38.24c1.38-1.32,2.43-2.49,3.65-3.45,4.85-3.84,11.91-3.05,13.56,4.52a68.59,68.59,0,0,1,1,12.51c.18,6.21.06,12.43.15,18.65,0,1.87-.72,2.58-2.8,2.26,0-4,.13-8.14,0-12.21q-.39-9.71-1.13-19.4c-.2-2.69-1.4-5.13-4.38-5.49a7,7,0,0,0-6.9,3.54A15.71,15.71,0,0,0,374.15,46c-.45,8-.43,15.93-.74,23.89-.05,1.27-.83,3.57-1.39,3.6-2.48.15-1.52-2.11-1.52-3.31,0-7.78.29-15.56.19-23.33-.06-3.74-.82-7.46-1.17-11.2a7.89,7.89,0,0,1,.45-2.24c.71.44,1.67.73,2.08,1.37A16.59,16.59,0,0,1,373.24,38.24Z"/><path d="M158.48,70.37c-.55,2.8-2,3.72-4.44,2.77a11.1,11.1,0,0,1-6.35-7c-2.44-6.6-2.35-13.44-1.77-20.27A91.3,91.3,0,0,1,161.05,3a21,21,0,0,1,3-3l.92.53a8,8,0,0,1-.75,2.6C159.08,10,155.8,17.76,153,25.66a75.72,75.72,0,0,0-4.57,22.52c-.17,5.34-.19,10.6,1.63,15.71C151.5,67.83,153.84,70.61,158.48,70.37Z"/><path d="M83.48,39.11c3-3.51,6-6.8,11-6.22,4.42.5,7.7,4.55,7,8.57a12.61,12.61,0,0,1-1,2A33.51,33.51,0,0,1,99,40.14C97.44,35.4,92.6,34,88.75,37.23c-2.86,2.39-3.86,5.59-4,9.07-.46,8-.77,16.06-1.14,24.09a6.06,6.06,0,0,1-.1,1.82c-.19.48-.74,1.12-1.16,1.13a1.62,1.62,0,0,1-1.19-1.06,14.2,14.2,0,0,1-.17-3.13c.09-8.22.31-16.43.25-24.64,0-2.94-.77-5.87-1.07-8.82a6.48,6.48,0,0,1,.55-2.1c.56.46,1.36.8,1.61,1.38A35,35,0,0,1,83.48,39.11Z"/><path d="M431.84,15.51c.75-3.74,1.42-7.07,2.08-10.39l1,.12c.77,4.12.2,8.28.34,12.42l-.69,0v-8L434,9.62,432.22,18h-1c-.54-2.64-1.07-5.29-1.61-7.93l-.6,0v7.64l-.65,0V5.36l.79-.22C430.87,8.16,430.53,11.84,431.84,15.51Z"/><path d="M445.81,17.71V5.43l.64,0c.09,1.81.18,3.63.31,6.1l4.57-6.42.43.21c0,.29.05.69-.11.85-3.12,3.05-2.66,6.24-.45,9.55a6.78,6.78,0,0,1,.67,1.69c0,.12-.11.3-.41,1.07L448,11.18a21.76,21.76,0,0,0-1.31,3.43,17.41,17.41,0,0,0,0,3.15Z"/><path d="M440.89,5.23c1,4.15,2,8.29,3,12.77-2.38-.77-.62-4-3.36-4.06-3-.11-1.44,2.94-3.7,4.3,1.11-4.76,2.06-8.88,3-13Zm-.22,3.39-.53,0c-.29,1.41-.57,2.82-.92,4.54l2.39-.39C441.26,11.22,441,9.92,440.67,8.62Z"/><path d="M472.61,5.42c0,3.59.15,7.19-.13,10.76-.05.71-1.72,1.74-2.67,1.78s-2.36-1.09-2.41-1.79c-.25-3.57-.11-7.16-.11-10.74h.85v6a13.63,13.63,0,0,0,.1,3.39,8.13,8.13,0,0,0,1.62,2.27c.66-.77,1.79-1.49,1.88-2.31.26-2.52.1-5.08.13-7.62,0-.59.11-1.18.17-1.78Z"/><path d="M454.11,5.43h5.05l0,.58-4,.31v4.36l3.79.26v.72l-3.77.35v4.72l4.48.4,0,.56h-5.71c0-3.54,0-7,0-10.51A17.3,17.3,0,0,1,454.11,5.43Z"/><path d="M475.7,12.89c-.1,1.6-.2,3.24-.31,4.88l-.67-.05V5.47c3.46-.61,5.16.16,5.6,2.52C480.86,10.86,479.83,12,475.7,12.89Zm0-1.45c2.43.38,3.64-.45,3.51-2.74s-1.51-2.62-3.51-2.43Z"/><path class="cls-1" d="M140.2,44.8c-.72,7.77-4.07,14.4-9,20.26a66.71,66.71,0,0,1-5.46,5.3c-1.28,1.2-2.56,1.17-4,.07a38.3,38.3,0,0,1-14.07-21.26c-1.2-4.66-.52-9.47,4-12.72,3.62-2.62,7.86-1.83,10.18,1.94.37.59.65,1.24,1,1.83,1.52,2.33,2.78,2.29,4.24,0a15.33,15.33,0,0,1,2.43-3.37,5.1,5.1,0,0,1,6.08-1c3,1.54,4.34,4.19,4.69,7.43A10.48,10.48,0,0,1,140.2,44.8Z"/><path class="cls-2" d="M463.46,44.72c-.56,7.72-3.9,14.26-8.73,20.09a66.46,66.46,0,0,1-5.83,5.67,2.62,2.62,0,0,1-3.77.18,38,38,0,0,1-14.39-21.94c-1.08-4.57-.3-9.28,4.19-12.41a6.85,6.85,0,0,1,10.2,2c.27.45.49.93.75,1.39,1.66,2.87,2.93,2.88,4.55.06,2.15-3.75,4.58-5.18,7.46-4.42,3.18.85,5.72,4.58,5.64,8.31C463.52,44,463.48,44.37,463.46,44.72Z"/></svg>